<?xml version="1.0" encoding="UTF-8"?>
<svg version="1.1" xmlns="http://www.w3.org/2000/svg" width="500" height="500">
<path d="M0 0 C165 0 330 0 500 0 C500 165 500 330 500 500 C335 500 170 500 0 500 C0 335 0 170 0 0 Z " fill="#607D4C" transform="translate(0,0)"/>
<path d="M0 0 C2.68216996 2.22900113 5.25578046 4.51748962 7.78125 6.921875 C9.97495025 9.04714803 9.97495025 9.04714803 12.47265625 10.8828125 C15.40006069 13.33513585 17.65726967 16.08945454 19.9375 19.125 C20.37352539 19.70121094 20.80955078 20.27742188 21.25878906 20.87109375 C35.62155927 40.10675629 43.4383041 61.72860644 43.3125 85.75 C43.30686035 86.88743652 43.3012207 88.02487305 43.29541016 89.19677734 C42.87865796 118.23326486 30.69232532 143.97130231 10.07299805 164.34448242 C-12.04238404 185.44636235 -40.62601269 193.77548586 -70.60302734 193.09765625 C-75.83608492 192.88445366 -80.88521655 192.08680658 -86 191 C-87.00160156 190.79375 -88.00320312 190.5875 -89.03515625 190.375 C-115.76120539 184.30560045 -139.03054265 166.58071008 -153.87011719 143.81005859 C-168.49746601 120.37722277 -174.37044949 90.56980136 -168.375 63.4375 C-161.489099 35.37550164 -144.38793511 10.7701818 -119.94042969 -4.83447266 C-82.42576204 -27.36781731 -35.41155582 -25.36876244 0 0 Z " fill="#617E4D" transform="translate(309,199)"/>
<path d="M0 0 C0.920398 -0.0055344 1.840796 -0.01106879 2.78908485 -0.0167709 C5.86844981 -0.03036748 8.94700289 -0.01541336 12.02635193 -0.00050354 C14.23584843 -0.00428704 16.44534256 -0.00978733 18.65483093 -0.01687622 C24.65265474 -0.03084311 30.65019209 -0.01965253 36.648 -0.00316501 C42.92238929 0.01067906 49.19676184 0.00422621 55.47116089 0.0007019 C66.007018 -0.00200052 76.54277408 0.01139129 87.07859802 0.03465271 C97.91653164 0.05857841 108.75431461 0.06565438 119.5922699 0.05516052 C132.65771878 0.04253253 145.72309201 0.04504267 158.78854179 0.06081963 C163.7776801 0.06658223 168.766768 0.06649459 173.75590706 0.06175423 C179.62873608 0.05698695 185.50135623 0.06707599 191.37414551 0.08870888 C193.53125746 0.09428003 195.68838947 0.09473905 197.84550285 0.08975601 C200.78639494 0.08381365 203.72664617 0.09628843 206.66748047 0.11352539 C207.52428691 0.10751535 208.38109335 0.1015053 209.26386362 0.09531313 C214.78108528 0.15425478 218.26890801 1.01881459 222.31712341 5.03636169 C226.48740133 10.33044827 226.92019773 13.31388725 226.92414856 19.92604065 C226.93072194 21.24933343 226.93072194 21.24933343 226.93742812 22.59935939 C226.95084694 25.57331668 226.95700193 28.54724432 226.96311951 31.52122498 C226.97101814 33.64644506 226.97928694 35.77166379 226.98789978 37.8968811 C227.01415079 44.8925803 227.02943197 51.88828557 227.04368591 58.88401794 C227.04904461 61.29032775 227.05442211 63.69663751 227.05981827 66.10294724 C227.08145283 76.11223646 227.10018963 86.12152406 227.11144066 96.13083076 C227.12767909 110.48386768 227.16084802 124.83663382 227.21784151 139.18956864 C227.25653062 149.27627478 227.27607224 159.36290848 227.28136122 169.44968688 C227.28501648 175.47624095 227.29705651 181.50250642 227.32946396 187.52898026 C227.35952556 193.20072629 227.36586294 198.87200883 227.3540802 204.54381752 C227.3538593 206.6239005 227.362178 208.70400485 227.37973404 210.78401375 C227.40242902 213.62805557 227.3941289 216.47041729 227.37825012 219.31446838 C227.39213221 220.13413719 227.4060143 220.953806 227.42031705 221.79831326 C227.33751487 227.83378806 225.49527306 231.7747427 221.77024841 236.50120544 C216.85910464 241.11470414 211.33041968 240.64821589 204.90162659 240.64164734 C203.99589366 240.64461846 203.09016073 240.64758958 202.15698135 240.65065074 C199.1154634 240.65933735 196.07398482 240.66084595 193.03245544 240.66233826 C190.85443538 240.66696639 188.67641613 240.67199105 186.49839783 240.67738342 C180.57693338 240.69050835 174.65548027 240.69695237 168.73400354 240.70139408 C165.03598916 240.70432416 161.33797788 240.70842881 157.63996506 240.71289825 C146.07384541 240.72657234 134.50773286 240.7362399 122.94160569 240.74010015 C121.62419353 240.74054224 120.30678137 240.74098433 118.94944763 240.74143982 C118.28936702 240.74166125 117.62928641 240.74188268 116.94920336 240.74211082 C105.58719435 240.74630479 94.22526798 240.76647304 82.86328614 240.79110074 C72.54132664 240.81269911 62.21939595 240.82280341 51.89741409 240.82414126 C45.73019031 240.82519045 39.56306261 240.8311227 33.39586258 240.84896088 C27.59613764 240.86540999 21.79658134 240.86761239 15.99684143 240.85882187 C13.86755294 240.85804985 11.7382555 240.86241585 9.60898972 240.87228012 C6.70340364 240.88495217 3.79841914 240.87914853 0.89283752 240.86869812 C0.04925253 240.87675452 -0.79433246 240.88481093 -1.66348064 240.89311147 C-6.59886732 240.85156355 -9.92983177 240.18758223 -14.22975159 237.50120544 C-15.87428284 235.81761169 -15.87428284 235.81761169 -17.04225159 234.06370544 C-17.4405719 233.48749451 -17.83889221 232.91128357 -18.24928284 232.31761169 C-20.69091411 227.79427088 -20.38059116 222.96437841 -20.38365173 217.94975281 C-20.38803399 217.07809943 -20.39241624 216.20644605 -20.39693129 215.30837893 C-20.410306 212.38209234 -20.41649515 209.45583586 -20.42262268 206.52952576 C-20.4305246 204.43356694 -20.43879361 202.33760948 -20.44740295 200.24165344 C-20.47360948 193.35422564 -20.48892781 186.46679179 -20.50318909 179.57933044 C-20.50854906 177.20830532 -20.51392657 174.83728023 -20.51932144 172.46625519 C-20.54094686 162.6044327 -20.55968415 152.74261184 -20.57094383 142.88077164 C-20.58718772 128.74661084 -20.62038033 114.61272474 -20.67734468 100.4786675 C-20.71603346 90.54053976 -20.7355752 80.60248554 -20.7408644 70.66428447 C-20.74451885 64.72830224 -20.75655096 58.79261308 -20.78896713 52.85671234 C-20.81902924 47.27193996 -20.82536597 41.68763829 -20.81358337 36.10280228 C-20.8133625 34.05496848 -20.82167919 32.00711294 -20.83923721 29.9593544 C-20.86193657 27.1592017 -20.85363033 24.36075485 -20.8377533 21.56059265 C-20.85163538 20.75396093 -20.86551747 19.9473292 -20.87982023 19.11625409 C-20.79643568 13.13048324 -19.09162053 9.08572422 -15.22975159 4.50120544 C-10.3458907 0.09395109 -6.26496278 -0.07041507 0 0 Z M22.12962341 49.93919373 C5.90620198 68.58097719 -3.6805957 93.55342904 -3.54225159 118.18870544 C-3.53733704 119.23598816 -3.53242249 120.28327087 -3.52735901 121.36228943 C-3.07515728 151.54849439 9.90731627 177.8526248 31.17649841 198.88011169 C43.76199004 210.64913946 59.26669875 218.72386212 75.77024841 223.50120544 C76.48696716 223.71518982 77.20368591 223.92917419 77.94212341 224.14964294 C103.43176756 231.18478473 133.38153044 225.88722197 156.20774841 213.18870544 C162.95718046 209.26960092 169.01144107 204.78365649 174.77024841 199.50120544 C175.25445251 199.06469666 175.73865662 198.62818787 176.23753357 198.17845154 C195.53000098 180.6201385 208.40295958 155.51752598 209.96092224 129.29148865 C210.03675733 126.02563951 210.04352573 122.76778956 210.02024841 119.50120544 C210.02798279 118.41581482 210.03571716 117.33042419 210.04368591 116.21214294 C210.01894482 105.84562528 208.71872945 95.94673281 205.14524841 86.18870544 C204.88654968 85.47432312 204.62785095 84.7599408 204.36131287 84.02391052 C199.68422766 71.55948534 193.12011725 60.84437004 184.77024841 50.50120544 C184.27009216 49.84765076 183.76993591 49.19409607 183.25462341 48.52073669 C178.86081075 43.00321907 173.32499032 38.79350601 167.77024841 34.50120544 C166.99938904 33.89147888 166.22852966 33.28175232 165.43431091 32.65354919 C155.71064916 25.36909952 143.53812874 19.58718805 131.77024841 16.50120544 C130.86790466 16.22534607 129.96556091 15.94948669 129.03587341 15.66526794 C89.89514816 5.25956294 48.74480019 20.75572551 22.12962341 49.93919373 Z " fill="#020202" transform="translate(142.22975158691406,165.49879455566406)"/>
<path d="M0 0 C40.92 0 81.84 0 124 0 C124 17.80210973 117.48186314 32.34941472 105.05859375 44.97265625 C96.00618516 53.29355707 84.53276985 60.1834801 72 60 C72.00460896 61.23744052 72.00921793 62.47488104 72.01396656 63.74981976 C72.1222294 93.11671174 72.20468925 122.48355844 72.25532665 151.85060049 C72.26158027 155.46428414 72.26805187 159.07796737 72.2746582 162.69165039 C72.27596976 163.411077 72.27728131 164.13050361 72.2786326 164.87173102 C72.30039588 176.52433256 72.33982243 188.17681091 72.38576398 199.82933935 C72.43250308 211.78375699 72.46028998 223.73811006 72.47044247 235.69261533 C72.47669063 242.40823745 72.49173227 249.12360254 72.52865028 255.83913231 C72.56252292 262.15676384 72.57307041 268.47400001 72.56553841 274.79171371 C72.56691684 277.11333042 72.57690078 279.43496001 72.59602737 281.75649834 C72.62082801 284.92130014 72.61495172 288.08460041 72.60127258 291.24943542 C72.61583679 292.17258976 72.630401 293.09574409 72.64540654 294.04687279 C72.59256829 298.55541619 72.46984611 300.40094553 69.60280132 304.05643177 C65.80834213 306.88983679 62.677532 307.44391341 58 307 C52.60240964 304.20481928 52.60240964 304.20481928 51 301 C50.89153682 297.87570747 50.84507528 294.77310771 50.84178162 291.64816284 C50.83437465 290.17552072 50.83437465 290.17552072 50.82681805 288.67312825 C50.81138281 285.36265368 50.80306616 282.0521986 50.79467773 278.74169922 C50.78510394 276.3769005 50.77509416 274.01210351 50.76467896 271.64730835 C50.74038868 265.87904326 50.72066597 260.11077539 50.70292621 254.34248672 C50.68204539 247.63222532 50.65557969 240.92198953 50.62875474 234.21174969 C50.5810632 222.24453204 50.53780326 210.27730262 50.49731445 198.31005859 C50.45796747 186.68309614 50.41654316 175.05614417 50.37231445 163.42919922 C50.36959018 162.71284573 50.36686591 161.99649224 50.36405908 161.25843106 C50.35037974 157.6647951 50.33665944 154.07115929 50.32291877 150.47752357 C50.20892946 120.65170414 50.10219912 90.82586229 50 61 C48.98607178 60.67821777 47.97214355 60.35643555 46.92749023 60.02490234 C45.57524715 59.58725664 44.22312116 59.14924905 42.87109375 58.7109375 C41.87257385 58.39564087 41.87257385 58.39564087 40.85388184 58.07397461 C34.55389756 56.01707316 29.3211471 52.95211411 24 49 C23.30648438 48.50113281 22.61296875 48.00226563 21.8984375 47.48828125 C10.88744156 38.78038207 3.04217816 25.38185019 0.296875 11.75 C-0.12363863 7.85471582 0 3.91791661 0 0 Z " fill="#000101" transform="translate(334,99)"/>
<path d="M0 0 C2.68216996 2.22900113 5.25578046 4.51748962 7.78125 6.921875 C9.97495025 9.04714803 9.97495025 9.04714803 12.47265625 10.8828125 C15.40006069 13.33513585 17.65726967 16.08945454 19.9375 19.125 C20.37352539 19.70121094 20.80955078 20.27742188 21.25878906 20.87109375 C35.62155927 40.10675629 43.4383041 61.72860644 43.3125 85.75 C43.30686035 86.88743652 43.3012207 88.02487305 43.29541016 89.19677734 C42.87865796 118.23326486 30.69232532 143.97130231 10.07299805 164.34448242 C-12.04238404 185.44636235 -40.62601269 193.77548586 -70.60302734 193.09765625 C-75.83608492 192.88445366 -80.88521655 192.08680658 -86 191 C-87.00160156 190.79375 -88.00320312 190.5875 -89.03515625 190.375 C-115.76120539 184.30560045 -139.03054265 166.58071008 -153.87011719 143.81005859 C-168.49746601 120.37722277 -174.37044949 90.56980136 -168.375 63.4375 C-161.489099 35.37550164 -144.38793511 10.7701818 -119.94042969 -4.83447266 C-82.42576204 -27.36781731 -35.41155582 -25.36876244 0 0 Z M-128 16 C-128 16.66 -128 17.32 -128 18 C-128.57363281 18.23332031 -129.14726562 18.46664062 -129.73828125 18.70703125 C-143.16274996 26.38146846 -151.73105331 47.93418244 -156 62 C-162.79300945 87.07178369 -157.76238393 114.02901816 -145.15625 136.25 C-140.33289559 143.84085285 -134.52389368 150.8055959 -128 157 C-127.34 157 -126.68 157 -126 157 C-126 157.66 -126 158.32 -126 159 C-122.85809109 161.59374608 -119.40125224 163.7622106 -116 166 C-114.83017578 166.78310547 -114.83017578 166.78310547 -113.63671875 167.58203125 C-93.06627318 180.68488649 -68.65877359 184.14143971 -44.8125 179.8125 C-37.94532202 178.17234812 -31.45869711 175.83631617 -25 173 C-24.00355469 172.56945312 -23.00710938 172.13890625 -21.98046875 171.6953125 C1.83951603 160.64383856 16.70025911 140.43547457 26.3125 116.625 C34.19007269 93.27237341 32.63446628 68.10694266 22 46 C12.69186537 27.23408226 -0.78153643 13.25685154 -19 3 C-19.67289063 2.60167969 -20.34578125 2.20335937 -21.0390625 1.79296875 C-25.41957581 -0.62885689 -30.12028339 -2.11135919 -34.875 -3.625 C-35.52315674 -3.8314917 -36.17131348 -4.0379834 -36.83911133 -4.25073242 C-45.77140396 -6.98112271 -54.33906092 -8.37063189 -63.6875 -8.3125 C-65.12814819 -8.30404053 -65.12814819 -8.30404053 -66.59790039 -8.29541016 C-89.2121994 -7.91317533 -110.95865586 1.12971715 -128 16 Z " fill="#F6F8F5" transform="translate(309,199)"/>
<path d="M0 0 C0.92425781 -0.00386719 1.84851563 -0.00773438 2.80078125 -0.01171875 C4.24517578 0.00568359 4.24517578 0.00568359 5.71875 0.0234375 C6.68167969 0.01183594 7.64460938 0.00023437 8.63671875 -0.01171875 C9.56097656 -0.00785156 10.48523438 -0.00398437 11.4375 0 C12.28248047 0.00338379 13.12746094 0.00676758 13.99804688 0.01025391 C16.75288455 0.49180535 17.48780052 1.23920514 19.21875 3.3984375 C19.59348011 5.274086 19.59348011 5.274086 19.5929718 7.42150879 C19.59998611 8.23747025 19.60700043 9.0534317 19.61422729 9.89411926 C19.60658356 10.78564194 19.59893982 11.67716461 19.59106445 12.59570312 C19.59471512 13.53741867 19.59836578 14.47913422 19.60212708 15.4493866 C19.61024529 18.56800262 19.59661174 21.68610114 19.58203125 24.8046875 C19.5815128 26.96797688 19.58202992 29.13126675 19.58354187 31.29455566 C19.58345209 35.83071923 19.57301065 40.36670528 19.55493164 44.90283203 C19.53224438 50.72389428 19.53169978 56.54469703 19.53844929 62.36579132 C19.54178722 66.83353999 19.53516248 71.30122926 19.52532005 75.76896667 C19.52146473 77.91562082 19.52032121 80.06228157 19.5219059 82.2089386 C19.52227583 85.20647828 19.50967635 88.20368248 19.4934082 91.20117188 C19.49588562 92.09269455 19.49836304 92.98421722 19.50091553 93.90275574 C19.49383072 94.71871719 19.48674591 95.53467865 19.47944641 96.37536621 C19.47636711 97.43834049 19.47636711 97.43834049 19.47322559 98.522789 C19.21875 100.3984375 19.21875 100.3984375 17.21875 103.3984375 C14.52404785 103.7726593 14.52404785 103.7726593 11.05664062 103.77075195 C9.76189819 103.77698074 8.46715576 103.78320953 7.13317871 103.78962708 C5.71378191 103.78093927 4.29438885 103.77162132 2.875 103.76171875 C1.42533366 103.7612003 -0.02433338 103.76171742 -1.47399902 103.76322937 C-4.51385986 103.76313959 -7.55345582 103.75269815 -10.59326172 103.73461914 C-14.49421053 103.71193152 -18.39477212 103.71138712 -22.29576874 103.71813679 C-25.28972834 103.72147471 -28.28359931 103.71485008 -31.27754211 103.70500755 C-32.71608517 103.70115218 -34.15463808 103.70000873 -35.59318542 103.7015934 C-37.60185959 103.70196331 -39.61052086 103.68788335 -41.61914062 103.6730957 C-42.76338501 103.66848831 -43.90762939 103.66388092 -45.08654785 103.65913391 C-47.78125 103.3984375 -47.78125 103.3984375 -49.78125 101.3984375 C-50.02848816 98.66577148 -50.02848816 98.66577148 -50.02416992 95.14453125 C-50.02724655 93.82976807 -50.03032318 92.51500488 -50.03349304 91.16040039 C-50.02659509 89.71891099 -50.01932811 88.27742332 -50.01171875 86.8359375 C-50.01052697 85.36385132 -50.01007378 83.89176437 -50.0103302 82.41967773 C-50.00876484 79.3327967 -50.00047134 76.24603156 -49.98706055 73.15917969 C-49.97007061 69.1977781 -49.96624619 65.23650395 -49.96700573 61.27507019 C-49.96673409 58.23481016 -49.96125389 55.19457812 -49.95400429 52.15432739 C-49.95081695 50.69345308 -49.94885006 49.2325756 -49.94811058 47.771698 C-49.94594774 45.73190169 -49.93641162 43.69211719 -49.92651367 41.65234375 C-49.92270187 40.49033447 -49.91889008 39.3283252 -49.91496277 38.13110352 C-49.78125 35.3984375 -49.78125 35.3984375 -48.78125 33.3984375 C-35.58125 33.3984375 -22.38125 33.3984375 -8.78125 33.3984375 C-8.57131567 23.66081999 -8.57131567 23.66081999 -8.39331055 13.92260742 C-8.34364136 12.10660034 -8.34364136 12.10660034 -8.29296875 10.25390625 C-8.26678467 9.01278076 -8.24060059 7.77165527 -8.21362305 6.49291992 C-7.78125 3.3984375 -7.78125 3.3984375 -6.5480957 1.49487305 C-4.24666107 0.06669246 -2.70232566 0.01082167 0 0 Z " fill="#010201" transform="translate(84.78125,240.6015625)"/>
<path d="M0 0 C1.73501518 -0.01073296 1.73501518 -0.01073296 3.50508118 -0.02168274 C4.78043732 -0.02437164 6.05579346 -0.02706055 7.36979675 -0.02983093 C8.72156957 -0.0360949 10.07334067 -0.04274165 11.42510986 -0.04974365 C15.10288981 -0.0671593 18.78065675 -0.07770692 22.45846772 -0.08594918 C24.75574803 -0.09109811 27.05302429 -0.09717389 29.35030174 -0.10346031 C36.53654614 -0.12251391 43.72278024 -0.13674473 50.90904504 -0.14507228 C59.20701966 -0.15484659 67.50472766 -0.18117023 75.80260831 -0.22157317 C82.21456563 -0.25172308 88.62644647 -0.26654007 95.03847331 -0.26985329 C98.86895773 -0.27220507 102.69915737 -0.28118156 106.52956581 -0.30631447 C110.13377355 -0.3295809 113.73750873 -0.33383456 117.34177208 -0.32355309 C119.29341549 -0.32282101 121.24503482 -0.34192237 123.19657898 -0.36161804 C124.94428337 -0.35120232 124.94428337 -0.35120232 126.72729492 -0.34057617 C128.2429742 -0.3441587 128.2429742 -0.3441587 129.78927326 -0.34781361 C133.33100046 0.28625361 135.00602043 1.65147626 137.55412292 4.14717102 C138.79086544 7.78010216 138.89870496 9.38909055 137.30412292 12.89717102 C135.55412292 15.14717102 135.55412292 15.14717102 132.55412292 17.14717102 C130.04095554 17.3988533 130.04095554 17.3988533 126.98126221 17.40113831 C125.24201729 17.40959778 125.24201729 17.40959778 123.46763611 17.41822815 C122.1943042 17.41417969 120.92097229 17.41013123 119.60905457 17.40596008 C118.25551159 17.40866994 116.90197009 17.41223084 115.5484314 17.4165802 C111.87073512 17.42570804 108.19315089 17.42215812 104.51545262 17.41582203 C100.6682678 17.41076304 96.82109266 17.4154533 92.97390747 17.41859436 C86.5117775 17.42223474 80.04969322 17.41743349 73.58757019 17.40791321 C66.11615619 17.39703311 58.64485138 17.40055069 51.17344004 17.41156602 C44.76062176 17.42064235 38.34783634 17.42192234 31.93501371 17.41668868 C28.10411918 17.41357029 24.27327596 17.41315595 20.44238472 17.41976166 C16.83989541 17.42553936 13.23754682 17.4215305 9.63507271 17.40997314 C7.68209654 17.40606711 5.72910848 17.41200894 3.77613831 17.41822815 C2.61382187 17.4125885 1.45150543 17.40694885 0.25396729 17.40113831 C-0.75610854 17.40038425 -1.76618437 17.3996302 -2.80686855 17.3988533 C-5.56308977 17.13599244 -7.14787348 16.66936939 -9.44587708 15.14717102 C-11.92626614 11.42658742 -11.90924911 9.54920531 -11.44587708 5.14717102 C-7.96105765 0.73306642 -5.45329872 0.02308934 0 0 Z " fill="#010301" transform="translate(331.4458770751953,75.85282897949219)"/>
<path d="M0 0 C6.41399525 4.24969457 10.77404965 9.58016549 13 17 C14.083721 25.66976802 13.47057732 33.2129968 8.30078125 40.34375 C3.21720749 46.49597287 -2.115901 50.42028163 -10 52 C-20.29814167 52.89740949 -26.34015439 51.14332988 -34.25 44.6875 C-39.63661884 39.75593934 -42.58008285 34.42712653 -43.2734375 27.1171875 C-43.56029056 17.95995515 -42.17623761 11.57434624 -35.91015625 4.7109375 C-25.38291465 -5.18646913 -12.79067903 -7.26890191 0 0 Z " fill="#FBFCFA" transform="translate(218,262)"/>
<path d="M0 0 C6.15276683 3.71487809 10.00581544 9.11741612 12 16 C12.94628043 24.33390837 13.43460759 33.06558188 8 40 C5.5625 42.75 5.5625 42.75 3 45 C2.21625 45.70125 1.4325 46.4025 0.625 47.125 C-6.42969303 52.16406645 -12.45313383 52.80231338 -21 52 C-27.5363658 50.78769104 -32.63612504 48.04776581 -37 43 C-42.80788415 34.19789578 -43.79113959 26.39318991 -43 16 C-42.10621788 12.92965001 -40.85148155 10.58948468 -39 8 C-38.46375 7.13375 -37.9275 6.2675 -37.375 5.375 C-26.63083706 -5.36916294 -13.34383687 -6.65113364 0 0 Z " fill="#FBFCFA" transform="translate(303,262)"/>
<path d="M0 0 C0.99 0.495 0.99 0.495 2 1 C1.67 1.99 1.34 2.98 1 4 C0.67 3.67 0.34 3.34 0 3 C-0.66 3.99 -1.32 4.98 -2 6 C-4.29197121 6.36914349 -4.29197121 6.36914349 -7.21377563 6.36076355 C-8.31877914 6.36488754 -9.42378265 6.36901154 -10.56227112 6.3732605 C-11.78002731 6.36247467 -12.99778351 6.35168884 -14.25244141 6.34057617 C-15.5304512 6.34101425 -16.808461 6.34145233 -18.12519836 6.34190369 C-21.63542427 6.34276649 -25.14534433 6.32509503 -28.65549898 6.30418181 C-32.32169843 6.28546226 -35.98790443 6.28366831 -39.65414429 6.28010559 C-46.59921669 6.27077119 -53.54414789 6.24613866 -60.48915803 6.21605712 C-68.39471727 6.18255639 -76.30028315 6.16603802 -84.20589566 6.15097082 C-100.47067985 6.11959022 -116.73532192 6.06680278 -133 6 C-133 6.66 -133 7.32 -133 8 C-93.07 8 -53.14 8 -12 8 C-12 8.33 -12 8.66 -12 9 C-52.26 9.33 -92.52 9.66 -134 10 C-134 11.65 -134 13.3 -134 15 C-134.33 15 -134.66 15 -135 15 C-135 12.36 -135 9.72 -135 7 C-137.97 6.505 -137.97 6.505 -141 6 C-141 5.34 -141 4.68 -141 4 C-140.29762585 3.99761165 -139.59525169 3.99522329 -138.87159348 3.99276257 C-121.78746096 3.93364675 -104.70348018 3.85811874 -87.61950302 3.76428509 C-79.3578392 3.71930443 -71.0962187 3.67989506 -62.83447266 3.65356445 C-55.6341896 3.63060269 -48.4340434 3.59722521 -41.23386884 3.55129844 C-37.42081239 3.52734147 -33.60789168 3.50862898 -29.79476166 3.50238609 C-26.20615862 3.49634631 -22.61790301 3.47638714 -19.02942848 3.44572449 C-17.08361983 3.43272932 -15.13773007 3.43451723 -13.19187927 3.4367218 C-12.03364151 3.42418365 -10.87540375 3.41164551 -9.68206787 3.39872742 C-8.17217096 3.39181397 -8.17217096 3.39181397 -6.63177109 3.38476086 C-3.62420886 2.94505992 -2.23774943 2.00675851 0 0 Z " fill="#657754" transform="translate(468,89)"/>
<path d="M0 0 C0.92876953 -0.00386719 1.85753906 -0.00773438 2.81445312 -0.01171875 C3.78189453 -0.00011719 4.74933594 0.01148438 5.74609375 0.0234375 C7.20305664 0.00603516 7.20305664 0.00603516 8.68945312 -0.01171875 C10.08067383 -0.00591797 10.08067383 -0.00591797 11.5 0 C12.77532593 0.00507568 12.77532593 0.00507568 14.07641602 0.01025391 C14.77178467 0.13835449 15.46715332 0.26645508 16.18359375 0.3984375 C16.84359375 1.3884375 17.50359375 2.3784375 18.18359375 3.3984375 C17.62897461 3.39320068 17.07435547 3.38796387 16.50292969 3.38256836 C13.97982932 3.36172719 11.45674711 3.34875468 8.93359375 3.3359375 C8.06089844 3.32755859 7.18820313 3.31917969 6.2890625 3.31054688 C5.44472656 3.30732422 4.60039063 3.30410156 3.73046875 3.30078125 C2.95541992 3.29554443 2.18037109 3.29030762 1.38183594 3.28491211 C-0.84276985 3.39979901 -2.71181319 3.66599057 -4.81640625 4.3984375 C-6.07479182 6.91520863 -6.02459598 8.81137038 -6.1328125 11.625 C-6.17470703 12.65625 -6.21660156 13.6875 -6.25976562 14.75 C-6.29908203 15.83023437 -6.33839844 16.91046875 -6.37890625 18.0234375 C-6.42208984 19.11140625 -6.46527344 20.199375 -6.50976562 21.3203125 C-6.61605155 24.0128892 -6.71808682 26.70556003 -6.81640625 29.3984375 C-7.14640625 29.3984375 -7.47640625 29.3984375 -7.81640625 29.3984375 C-7.90332699 25.12773192 -7.9567714 20.85725292 -8.00390625 16.5859375 C-8.02904297 15.37099609 -8.05417969 14.15605469 -8.08007812 12.90429688 C-8.08974609 11.74091797 -8.09941406 10.57753906 -8.109375 9.37890625 C-8.12508545 8.30535889 -8.1407959 7.23181152 -8.15698242 6.12573242 C-7.81640625 3.3984375 -7.81640625 3.3984375 -6.59912109 1.54956055 C-4.2788233 0.05131293 -2.7536593 0.0109448 0 0 Z " fill="#1C2515" transform="translate(84.81640625,240.6015625)"/>
<path d="M0 0 C1.75364045 2.27973259 3.34832231 4.5573157 4.875 7 C6.98587496 9.98005877 9.05590578 11.87370973 12 14 C11.67 14.66 11.34 15.32 11 16 C8.69 15.34 6.38 14.68 4 14 C4 12.02 4 10.04 4 8 C3.01 7.67 2.02 7.34 1 7 C0.67 4.69 0.34 2.38 0 0 Z " fill="#6C815D" transform="translate(261,296)"/>
<path d="M0 0 C1 3 1 3 1 5 C-0.98 5 -2.96 5 -5 5 C-5.66 6.65 -6.32 8.3 -7 10 C-9.46800047 8.84826645 -11.04783565 7.95216435 -13 6 C-11.96939453 5.60167969 -11.96939453 5.60167969 -10.91796875 5.1953125 C-10.01691406 4.84210938 -9.11585938 4.48890625 -8.1875 4.125 C-7.29417969 3.77695312 -6.40085938 3.42890625 -5.48046875 3.0703125 C-2.82288409 2.01167845 -2.82288409 2.01167845 0 0 Z " fill="#6C825E" transform="translate(221,307)"/>
<path d="M0 0 C0.33 0 0.66 0 1 0 C1.0814222 2.22855574 1.13938079 4.45797655 1.1875 6.6875 C1.22230469 7.92886719 1.25710937 9.17023438 1.29296875 10.44921875 C0.97946629 14.24886862 0.20387833 15.95299146 -2 19 C-2.66 19.99 -3.32 20.98 -4 22 C-4.66 21.67 -5.32 21.34 -6 21 C-5.38125 20.13375 -4.7625 19.2675 -4.125 18.375 C-0.87212339 12.80358368 -0.66394423 6.29873412 0 0 Z " fill="#687B5B" transform="translate(231,282)"/>
<path d="M0 0 C0.33 0.66 0.66 1.32 1 2 C-1.19401522 6.50992018 -4.44930542 10.72465271 -9 13 C-7.63550416 7.79010681 -5.60150156 4.87161418 -2 1 C-1.34 0.67 -0.68 0.34 0 0 Z " fill="#E6F3E0" transform="translate(270,264)"/>
<path d="M0 0 C1.79275866 3.11910856 2.34290718 5.67682428 2.625 9.25 C2.69976562 10.14203125 2.77453125 11.0340625 2.8515625 11.953125 C2.92503906 12.96632813 2.92503906 12.96632813 3 14 C2.01 14.66 1.02 15.32 0 16 C-1.16306443 12.45049966 -0.92365049 9.44176052 -0.5625 5.75 C-0.46066406 4.67234375 -0.35882813 3.5946875 -0.25390625 2.484375 C-0.17011719 1.66453125 -0.08632813 0.8446875 0 0 Z " fill="#718765" transform="translate(336,260)"/>
<path d="M0 0 C0.33 0 0.66 0 1 0 C0.88979143 3.08404808 0.75924186 6.16691192 0.625 9.25 C0.5940625 10.12269531 0.563125 10.99539063 0.53125 11.89453125 C0.49257813 12.73886719 0.45390625 13.58320313 0.4140625 14.453125 C0.36693115 15.61569824 0.36693115 15.61569824 0.31884766 16.80175781 C-0.03026506 19.20865742 -0.80551104 20.89602295 -2 23 C-2.66 23 -3.32 23 -4 23 C-3.79503906 21.84242188 -3.59007812 20.68484375 -3.37890625 19.4921875 C-3.10675544 17.95312772 -2.83462088 16.41406507 -2.5625 14.875 C-2.42779297 14.11445313 -2.29308594 13.35390625 -2.15429688 12.5703125 C-1.41440873 8.38362839 -0.69026923 4.19522853 0 0 Z " fill="#D8E4D2" transform="translate(339,292)"/>
<path d="M0 0 C2.3125 0.1875 2.3125 0.1875 5 1 C6.875 3.375 6.875 3.375 8 6 C7.67 6.99 7.34 7.98 7 9 C6.67 8.01 6.34 7.02 6 6 C5.34 6 4.68 6 4 6 C3.67 6.66 3.34 7.32 3 8 C2.67 7.67 2.34 7.34 2 7 C2.020625 6.195625 2.04125 5.39125 2.0625 4.5625 C2.29058908 1.83081897 2.29058908 1.83081897 0 0 Z " fill="#6B835B" transform="translate(319,231)"/>
<path d="M0 0 C2.3353116 2.03398107 3.81898585 3.49574628 4.875 6.4375 C5.02203612 9.45174044 4.30748208 11.30812513 3 14 C2.67 14 2.34 14 2 14 C1.66179834 12.4176994 1.32964061 10.83410625 1 9.25 C0.814375 8.36828125 0.62875 7.4865625 0.4375 6.578125 C0 4 0 4 0 0 Z " fill="#728362" transform="translate(151,296)"/>
<path d="M0 0 C0 1.32 0 2.64 0 4 C-1.65 4.66 -3.3 5.32 -5 6 C-5 6.66 -5 7.32 -5 8 C-7.5 9.625 -7.5 9.625 -10 11 C-8.73396788 6.69549079 -5.08358566 0 0 0 Z " fill="#E8F3E2" transform="translate(188,263)"/>
<path d="M0 0 C0.66 0 1.32 0 2 0 C3.2890625 1.53125 3.2890625 1.53125 4.625 3.5 C5.07101562 4.1496875 5.51703125 4.799375 5.9765625 5.46875 C6.31429688 5.9740625 6.65203125 6.479375 7 7 C6.34 7.66 5.68 8.32 5 9 C4.79375 8.360625 4.5875 7.72125 4.375 7.0625 C3.10461791 4.65074923 3.10461791 4.65074923 -0.125 4.25 C-1.07375 4.1675 -2.0225 4.085 -3 4 C-2 2 -2 2 0 0 Z " fill="#637857" transform="translate(348,139)"/>
<path d="M0 0 C0.99 0.33 1.98 0.66 3 1 C3.33333333 2.33333333 3.66666667 3.66666667 4 5 C4.99 5.33 5.98 5.66 7 6 C6.67 6.99 6.34 7.98 6 9 C2.75700849 6.61042731 0.49097658 4.7952131 -1 1 C-0.67 0.67 -0.34 0.34 0 0 Z " fill="#EBF1DF" transform="translate(265,300)"/>
<path d="M0 0 C0.33 0 0.66 0 1 0 C1.144375 0.928125 1.28875 1.85625 1.4375 2.8125 C1.92100111 6.00725111 1.92100111 6.00725111 3 9 C2.0625 12.1875 2.0625 12.1875 1 15 C0.34 15 -0.32 15 -1 15 C-0.67 10.05 -0.34 5.1 0 0 Z " fill="#798B70" transform="translate(315,281)"/>
<path d="M0 0 C2 2 2 2 2.1953125 5.0390625 C2.17210937 6.22242188 2.14890625 7.40578125 2.125 8.625 C2.10695312 9.81351562 2.08890625 11.00203125 2.0703125 12.2265625 C2.04710937 13.14179688 2.02390625 14.05703125 2 15 C1.67 15 1.34 15 1 15 C0.63807496 12.87630763 0.28568253 10.7509887 -0.0625 8.625 C-0.25972656 7.44164062 -0.45695313 6.25828125 -0.66015625 5.0390625 C-1 2 -1 2 0 0 Z " fill="#DBE9D6" transform="translate(229,277)"/>
<path d="M0 0 C-7.5 5 -7.5 5 -10 5 C-10 4.34 -10 3.68 -10 3 C-9.34 3 -8.68 3 -8 3 C-7.67 2.01 -7.34 1.02 -7 0 C-4.05610218 -1.17755913 -3.10046087 -1.03348696 0 0 Z " fill="#677E59" transform="translate(196,258)"/>
<path d="M0 0 C0.598125 0.165 1.19625 0.33 1.8125 0.5 C4.11344336 1.1114124 4.11344336 1.1114124 7 1 C7 2.65 7 4.3 7 6 C6.34 6 5.68 6 5 6 C5 5.34 5 4.68 5 4 C4.360625 3.71125 3.72125 3.4225 3.0625 3.125 C1 2 1 2 0 0 Z " fill="#6B845D" transform="translate(178,352)"/>
<path d="M0 0 C1.32 0.66 2.64 1.32 4 2 C4 2.66 4 3.32 4 4 C2.35 4.33 0.7 4.66 -1 5 C-1 1 -1 1 0 0 Z " fill="#5C7543" transform="translate(386,402)"/>
<path d="M0 0 C0.66 0.99 1.32 1.98 2 3 C-0.3125 5.0625 -0.3125 5.0625 -3 7 C-3.99 6.67 -4.98 6.34 -6 6 C-4 4 -2 2 0 0 Z " fill="#F0F8E5" transform="translate(311,353)"/>
<path d="M0 0 C2.1875 0.3125 2.1875 0.3125 4 1 C3.34 2.32 2.68 3.64 2 5 C-0.475 4.01 -0.475 4.01 -3 3 C-1.75 1.4375 -1.75 1.4375 0 0 Z " fill="#5E7345" transform="translate(431,149)"/>
<path d="M0 0 C2.17766075 4.35532149 2.03039555 5.46625958 1 10 C0.01 10 -0.98 10 -2 10 C-1.34 6.7 -0.68 3.4 0 0 Z " fill="#536849" transform="translate(457,108)"/>
<path d="M0 0 C0.33 0.66 0.66 1.32 1 2 C0.22265625 3.7265625 0.22265625 3.7265625 -0.9375 5.625 C-1.618125 6.73875 -2.29875 7.8525 -3 9 C-3.33 7.68 -3.66 6.36 -4 5 C-3.34 5 -2.68 5 -2 5 C-2.33 4.01 -2.66 3.02 -3 2 C-2.01 1.34 -1.02 0.68 0 0 Z " fill="#E1EBD9" transform="translate(229,294)"/>
<path d="M0 0 C0.99 1.32 1.98 2.64 3 4 C2.34 5.32 1.68 6.64 1 8 C0.34 8 -0.32 8 -1 8 C-0.67 5.36 -0.34 2.72 0 0 Z " fill="#788F6D" transform="translate(153,261)"/>
<path d="M0 0 C0.99 0 1.98 0 3 0 C3 1.65 3 3.3 3 5 C2.01 5 1.02 5 0 5 C-0.33 4.01 -0.66 3.02 -1 2 C-0.67 1.34 -0.34 0.68 0 0 Z " fill="#69805A" transform="translate(165,332)"/>
<path d="M0 0 C2.25245881 2.68841859 3.88213958 4.64641875 5 8 C4.01 8 3.02 8 2 8 C-0.1519437 4.77208445 -0.20086443 3.71599191 0 0 Z " fill="#E7F2E2" transform="translate(160,328)"/>
<path d="M0 0 C0.99 0.33 1.98 0.66 3 1 C3 1.99 3 2.98 3 4 C3.99 4.33 4.98 4.66 6 5 C5.34 6.32 4.68 7.64 4 9 C2.68 6.03 1.36 3.06 0 0 Z " fill="#E8F3E3" transform="translate(326,236)"/>
<path d="M0 0 C0.99 0.33 1.98 0.66 3 1 C1.515 2.485 1.515 2.485 0 4 C-0.66 3.67 -1.32 3.34 -2 3 C-2.33 3.66 -2.66 4.32 -3 5 C-3.66 4.34 -4.32 3.68 -5 3 C-2.6875 1.4375 -2.6875 1.4375 0 0 Z " fill="#0A1307" transform="translate(326,76)"/>
</svg>
